<?xml version="1.0" encoding="UTF-8" standalone="no"?>
<!-- Created with Inkscape (http://www.inkscape.org/) -->

<svg
   xmlns:dc="http://purl.org/dc/elements/1.1/"
   xmlns:cc="http://creativecommons.org/ns#"
   xmlns:rdf="http://www.w3.org/1999/02/22-rdf-syntax-ns#"
   xmlns:svg="http://www.w3.org/2000/svg"
   xmlns="http://www.w3.org/2000/svg"
   xmlns:sodipodi="http://sodipodi.sourceforge.net/DTD/sodipodi-0.dtd"
   xmlns:inkscape="http://www.inkscape.org/namespaces/inkscape"
   width="348.19241"
   height="353.55972"
   id="svg3018"
   version="1.1"
   inkscape:version="0.48.4 r9939"
   inkscape:export-filename="/home/ale/tmp/favicon.png"
   inkscape:export-xdpi="90"
   inkscape:export-ydpi="90"
   sodipodi:docname="New document 3">
  <defs
     id="defs3020" />
  <sodipodi:namedview
     id="base"
     pagecolor="#ffffff"
     bordercolor="#666666"
     borderopacity="1.0"
     inkscape:pageopacity="0.0"
     inkscape:pageshadow="2"
     inkscape:zoom="1"
     inkscape:cx="353.7969"
     inkscape:cy="141.30444"
     inkscape:document-units="px"
     inkscape:current-layer="layer1"
     showgrid="false"
     fit-margin-top="10"
     fit-margin-bottom="10"
     fit-margin-right="10"
     fit-margin-left="10"
     inkscape:window-width="1366"
     inkscape:window-height="743"
     inkscape:window-x="0"
     inkscape:window-y="0"
     inkscape:window-maximized="1" />
  <metadata
     id="metadata3023">
    <rdf:RDF>
      <cc:Work
         rdf:about="">
        <dc:format>image/svg+xml</dc:format>
        <dc:type
           rdf:resource="http://purl.org/dc/dcmitype/StillImage" />
        <dc:title></dc:title>
      </cc:Work>
    </rdf:RDF>
  </metadata>
  <g
     inkscape:label="Layer 1"
     inkscape:groupmode="layer"
     id="layer1"
     transform="translate(-197.60843,-356.24194)">
    <path
       style="fill:#500000;fill-opacity:1"
       d="m 225.88535,698.24502 c -5.36767,-1.90366 -11.73964,-7.42488 -15.01075,-13.0066 -3.53172,-6.02643 -4.28088,-15.13161 -1.84773,-22.45713 3.36767,-10.13911 15.26561,-18.91911 25.63762,-18.91911 4.17368,0 7.73077,-2.11036 12.91576,-7.66268 6.03728,-6.46498 11.78087,-15.07335 18.3709,-27.53389 4.75861,-8.99766 14.54885,-30.04917 14.54885,-31.28373 0,-0.45936 -0.84816,-0.71407 -18.1526,-5.45135 -12.76682,-3.49505 -15.57657,-4.85693 -19.69282,-9.54507 -5.83117,-6.64134 -7.62272,-11.24286 -7.60116,-19.52328 0.0166,-6.37926 0.4555,-8.29688 2.93701,-12.83272 1.60461,-2.93299 4.23578,-6.442 5.84705,-7.7978 9.95094,-8.37316 17.81868,-8.86058 41.0054,-2.54035 8.71358,2.37514 15.95889,4.17274 16.10067,3.99466 1.42551,-1.79042 26.71561,-81.49028 37.54612,-118.32379 7.8739,-26.77835 10.36562,-31.12608 21.01033,-36.6604 9.4988,-4.93853 24.8298,-2.15912 32.08688,5.81715 3.51529,3.86367 13.16016,17.84914 34.02882,49.34325 66.37627,100.17227 99.15774,161.97852 108.46496,204.5 2.44132,11.15352 2.26636,26.74518 -0.41208,36.72348 -2.15454,8.02655 -6.83585,16.34738 -11.78921,20.95481 -9.40431,8.74755 -32.14872,13.51092 -44.45123,9.30944 -10.26661,-3.5062 -18.0105,-13.88355 -18.74518,-25.11983 -0.33231,-5.08246 0.0688,-7.17886 2.34348,-12.24747 3.1314,-6.97769 9.30365,-13.24919 14.83667,-15.07525 3.56764,-1.17743 3.67196,-1.3455 3.03038,-4.88229 -1.42431,-7.85169 -9.01834,-27.43459 -16.932,-43.66289 -4.55948,-9.35 -8.71536,-17.5993 -9.23529,-18.33177 -0.75368,-1.06181 -2.54482,-0.53289 -8.83576,2.60917 -10.19746,5.09321 -17.71489,7.6289 -30.51704,10.29363 -17.29897,3.60073 -49.40258,3.37581 -75.43862,-0.52854 l -4.41889,-0.66265 -4.19217,9.31008 c -25.20667,55.97961 -52.44614,91.4163 -77.46541,100.77721 -6.53499,2.44505 -19.65862,2.6551 -25.97296,0.41571 z M 406,531.90534 c 7.72319,-2.46909 16.5,-6.86079 16.5,-8.2562 0,-1.04901 -9.20378,-15.98727 -23.28135,-37.78696 -5.50519,-8.525 -11.80226,-18.29019 -13.9935,-21.70043 l -3.98408,-6.20042 -10.26106,30.70042 c -5.64358,16.88524 -11.43533,33.79151 -12.87054,37.56949 -1.43521,3.77798 -2.60947,7.00918 -2.60947,7.18045 0,0.98123 6.62515,1.26037 24,1.01119 16.9497,-0.24308 20.41549,-0.57233 26.5,-2.51754 z"
       id="path3039"
       inkscape:connector-curvature="0" />
  </g>
</svg>
