<?xml version="1.0" encoding="UTF-8" standalone="no"?>
<!-- Created with Inkscape (http://www.inkscape.org/) -->

<svg
   xmlns:dc="http://purl.org/dc/elements/1.1/"
   xmlns:cc="http://creativecommons.org/ns#"
   xmlns:rdf="http://www.w3.org/1999/02/22-rdf-syntax-ns#"
   xmlns:svg="http://www.w3.org/2000/svg"
   xmlns="http://www.w3.org/2000/svg"
   xmlns:sodipodi="http://sodipodi.sourceforge.net/DTD/sodipodi-0.dtd"
   xmlns:inkscape="http://www.inkscape.org/namespaces/inkscape"
   width="440"
   height="440"
   id="svg2"
   version="1.1"
   inkscape:version="0.48.4 r9939"
   inkscape:export-filename="/home/ale/tmp/secondlogo.png"
   inkscape:export-xdpi="90"
   inkscape:export-ydpi="90"
   sodipodi:docname="New document 1">
  <defs
     id="defs4" />
  <sodipodi:namedview
     id="base"
     pagecolor="#ffffff"
     bordercolor="#666666"
     borderopacity="1.0"
     inkscape:pageopacity="0.0"
     inkscape:pageshadow="2"
     inkscape:zoom="0.7"
     inkscape:cx="295.58057"
     inkscape:cy="280.91903"
     inkscape:document-units="px"
     inkscape:current-layer="layer1"
     showgrid="false"
     showguides="true"
     inkscape:guide-bbox="true"
     fit-margin-top="20"
     fit-margin-bottom="20"
     fit-margin-left="20"
     fit-margin-right="20"
     inkscape:window-width="1366"
     inkscape:window-height="743"
     inkscape:window-x="0"
     inkscape:window-y="0"
     inkscape:window-maximized="1" />
  <metadata
     id="metadata7">
    <rdf:RDF>
      <cc:Work
         rdf:about="">
        <dc:format>image/svg+xml</dc:format>
        <dc:type
           rdf:resource="http://purl.org/dc/dcmitype/StillImage" />
        <dc:title></dc:title>
      </cc:Work>
    </rdf:RDF>
  </metadata>
  <g
     inkscape:label="Layer 1"
     inkscape:groupmode="layer"
     id="layer1"
     transform="translate(-80,-382.375)">
    <path
       style="fill:#FF6600;fill-opacity:1;stroke:none"
       d="m 300,402.375 c -110.45694,0 -200,89.54304 -200,200 0,110.45694 89.54306,200 200,200 110.45694,0 200,-89.54306 200,-200 0,-110.45696 -89.54306,-200 -200,-200 z m -26.90625,53.5625 c 2.2798,-0.02 1.93639,1.37257 1.46875,5.21875 -2.24581,18.4708 -9.46973,50.37918 -16.5625,73.1875 -4.40683,14.17115 -12.94481,37.37886 -14.25,38.6875 -1.05259,1.05539 -14.41263,-3.09481 -23.21875,-7.21875 -8.83962,-4.13962 -13.11588,-4.79825 -18.90625,-2.875 -6.62231,2.19958 -11.65616,6.90256 -13.9375,13 -1.0436,2.78925 -1.90625,6.03353 -1.90625,7.1875 0,4.11907 2.89557,11.69951 5.65625,14.84375 2.94553,3.35477 19.08919,11.79336 28.1875,14.71875 l 4.84375,1.5625 -3.375,6.125 c -9.83907,17.72931 -21.88705,36.34358 -35.25,54.59375 -4.34192,5.92989 -8.20804,10.798 -8.59375,10.8125 -1.02314,0.0385 -6.26372,-8.44723 -10.78125,-17.4375 -11.31639,-22.52052 -15.33702,-42.59892 -14.4375,-72.03125 0.95268,-31.17188 8.81148,-55.39447 25.78125,-79.46875 7.35115,-10.42877 26.44583,-29.54875 36.78125,-36.8125 15.20402,-10.68542 34.66685,-19.37976 51.03125,-22.78125 3.77794,-0.78528 6.10087,-1.30049 7.46875,-1.3125 z M 332.6875,457 c 4.15815,-0.004 19.27779,5.07288 31.09375,10.8125 21.64418,10.51371 39.64083,25.18554 54.40625,44.34375 l 4.03125,5.25 -6.6875,4.46875 c -5.91828,3.96159 -20.3795,12.71262 -30.4375,18.4375 -1.92607,1.09629 -3.79903,2 -4.15625,2 -0.35722,0 -4.30563,-7.33265 -8.78125,-16.3125 -9.96352,-19.99076 -19.18858,-36.05549 -30.8125,-53.59375 -4.86187,-7.33565 -9.20062,-13.86799 -9.625,-14.53125 -0.38175,-0.59663 0.009,-0.87401 0.96875,-0.875 z m -21.53125,48.875 c 0.86574,-0.86574 20.40715,34.61988 26.78125,48.625 l 3.25,7.125 -3.4375,1.4375 c -6.59602,2.77338 -24.062,7.71532 -35.5,10.03125 -6.34746,1.28522 -11.68038,2.34375 -11.84375,2.34375 -0.16336,0 2.91922,-9.61266 6.84375,-21.375 3.92453,-11.76234 8.56325,-27.3716 10.34375,-34.65625 1.78052,-7.28465 3.39837,-13.36712 3.5625,-13.53125 z m 130.375,51.71875 c 0.0602,-0.0122 0.10366,-0.0132 0.125,0 0.95332,0.58919 4.22814,15.47355 5.4375,24.71875 1.58826,12.14159 0.5813,39.9327 -1.84375,51.1875 -2.59286,12.03359 -5.88271,21.59483 -11.15625,32.53125 -2.4395,5.05907 -5.84597,11.45057 -7.59375,14.1875 -3.56707,5.58582 -3.50868,5.62585 -5.25,-4.53125 -3.4864,-20.33633 -13.43306,-58.75659 -21,-81.125 l -3.625,-10.75 10.6875,-6 c 5.89212,-3.30219 15.89803,-9.29651 22.21875,-13.3125 5.92568,-3.76499 11.09667,-6.7234 12,-6.90625 z m -85.25,45.625 c 1.3671,0.0443 2.10538,1.92314 5.09375,11.4375 8.10945,25.81882 14.53792,52.29795 18.84375,77.59375 3.59306,21.10833 5.20046,31.55214 4.9375,31.78125 -1.7516,1.52618 -14.62907,9.22691 -19.59375,11.71875 -7.62524,3.8272 -25.60317,10.01149 -35.375,12.1875 -5.03128,1.12038 -12.49989,1.63921 -27.59375,1.84375 -11.38291,0.15424 -21.73524,0.0703 -23,-0.15625 -22.4417,-4.01991 -33.02733,-7.43632 -49.3125,-15.9375 -10.88406,-5.6817 -23.57296,-14.72892 -22.53125,-16.0625 21.60459,-27.6578 41.23816,-57.89926 58.25,-89.75 l 3.1875,-6 10,-0.65625 c 20.18148,-1.35658 41.37387,-5.86717 62.5,-13.28125 6.57679,-2.30808 12.86847,-4.40726 13.96875,-4.65625 0.23001,-0.0521 0.4297,-0.0688 0.625,-0.0625 z"
       id="path2998"
       inkscape:connector-curvature="0" />
  </g>
</svg>
